<svg width="230" height="127" viewBox="0 0 230 127" fill="none" xmlns="http://www.w3.org/2000/svg">
<path d="M3.04688 81V46.875H13.5469C16.5469 46.875 19.2266 47.5547 21.5859 48.9141C23.9609 50.2578 25.8125 52.1797 27.1406 54.6797C28.4688 57.1641 29.1328 59.9922 29.1328 63.1641V64.7344C29.1328 67.9062 28.4766 70.7266 27.1641 73.1953C25.8672 75.6641 24.0312 77.5781 21.6562 78.9375C19.2812 80.2969 16.6016 80.9844 13.6172 81H3.04688ZM10.0781 52.5703V75.3516H13.4766C16.2266 75.3516 18.3281 74.4531 19.7812 72.6562C21.2344 70.8594 21.9766 68.2891 22.0078 64.9453V63.1406C22.0078 59.6719 21.2891 57.0469 19.8516 55.2656C18.4141 53.4688 16.3125 52.5703 13.5469 52.5703H10.0781ZM51.9609 72.0469C51.9609 70.7188 51.4922 69.7031 50.5547 69C49.6172 68.2812 47.9297 67.5312 45.4922 66.75C43.0547 65.9531 41.125 65.1719 39.7031 64.4062C35.8281 62.3125 33.8906 59.4922 33.8906 55.9453C33.8906 54.1016 34.4062 52.4609 35.4375 51.0234C36.4844 49.5703 37.9766 48.4375 39.9141 47.625C41.8672 46.8125 44.0547 46.4062 46.4766 46.4062C48.9141 46.4062 51.0859 46.8516 52.9922 47.7422C54.8984 48.6172 56.375 49.8594 57.4219 51.4688C58.4844 53.0781 59.0156 54.9062 59.0156 56.9531H51.9844C51.9844 55.3906 51.4922 54.1797 50.5078 53.3203C49.5234 52.4453 48.1406 52.0078 46.3594 52.0078C44.6406 52.0078 43.3047 52.375 42.3516 53.1094C41.3984 53.8281 40.9219 54.7812 40.9219 55.9688C40.9219 57.0781 41.4766 58.0078 42.5859 58.7578C43.7109 59.5078 45.3594 60.2109 47.5312 60.8672C51.5312 62.0703 54.4453 63.5625 56.2734 65.3438C58.1016 67.125 59.0156 69.3438 59.0156 72C59.0156 74.9531 57.8984 77.2734 55.6641 78.9609C53.4297 80.6328 50.4219 81.4688 46.6406 81.4688C44.0156 81.4688 41.625 80.9922 39.4688 80.0391C37.3125 79.0703 35.6641 77.75 34.5234 76.0781C33.3984 74.4062 32.8359 72.4688 32.8359 70.2656H39.8906C39.8906 74.0312 42.1406 75.9141 46.6406 75.9141C48.3125 75.9141 49.6172 75.5781 50.5547 74.9062C51.4922 74.2188 51.9609 73.2656 51.9609 72.0469ZM90.5859 69.6328C90.3203 73.3047 88.9609 76.1953 86.5078 78.3047C84.0703 80.4141 80.8516 81.4688 76.8516 81.4688C72.4766 81.4688 69.0312 80 66.5156 77.0625C64.0156 74.1094 62.7656 70.0625 62.7656 64.9219V62.8359C62.7656 59.5547 63.3438 56.6641 64.5 54.1641C65.6562 51.6641 67.3047 49.75 69.4453 48.4219C71.6016 47.0781 74.1016 46.4062 76.9453 46.4062C80.8828 46.4062 84.0547 47.4609 86.4609 49.5703C88.8672 51.6797 90.2578 54.6406 90.6328 58.4531H83.6016C83.4297 56.25 82.8125 54.6562 81.75 53.6719C80.7031 52.6719 79.1016 52.1719 76.9453 52.1719C74.6016 52.1719 72.8438 53.0156 71.6719 54.7031C70.5156 56.375 69.9219 58.9766 69.8906 62.5078V65.0859C69.8906 68.7734 70.4453 71.4688 71.5547 73.1719C72.6797 74.875 74.4453 75.7266 76.8516 75.7266C79.0234 75.7266 80.6406 75.2344 81.7031 74.25C82.7812 73.25 83.3984 71.7109 83.5547 69.6328H90.5859ZM93.7031 68.0859C93.7031 65.5703 94.1875 63.3281 95.1562 61.3594C96.125 59.3906 97.5156 57.8672 99.3281 56.7891C101.156 55.7109 103.273 55.1719 105.68 55.1719C109.102 55.1719 111.891 56.2188 114.047 58.3125C116.219 60.4062 117.43 63.25 117.68 66.8438L117.727 68.5781C117.727 72.4688 116.641 75.5938 114.469 77.9531C112.297 80.2969 109.383 81.4688 105.727 81.4688C102.07 81.4688 99.1484 80.2969 96.9609 77.9531C94.7891 75.6094 93.7031 72.4219 93.7031 68.3906V68.0859ZM100.477 68.5781C100.477 70.9844 100.93 72.8281 101.836 74.1094C102.742 75.375 104.039 76.0078 105.727 76.0078C107.367 76.0078 108.648 75.3828 109.57 74.1328C110.492 72.8672 110.953 70.8516 110.953 68.0859C110.953 65.7266 110.492 63.8984 109.57 62.6016C108.648 61.3047 107.352 60.6562 105.68 60.6562C104.023 60.6562 102.742 61.3047 101.836 62.6016C100.93 63.8828 100.477 65.875 100.477 68.5781ZM131.016 72.7266L135.727 55.6406H142.805L134.25 81H127.781L119.227 55.6406H126.305L131.016 72.7266ZM158.883 68.5078H153.281V81H146.25V46.875H158.93C162.961 46.875 166.07 47.7734 168.258 49.5703C170.445 51.3672 171.539 53.9062 171.539 57.1875C171.539 59.5156 171.031 61.4609 170.016 63.0234C169.016 64.5703 167.492 65.8047 165.445 66.7266L172.828 80.6719V81H165.281L158.883 68.5078ZM153.281 62.8125H158.953C160.719 62.8125 162.086 62.3672 163.055 61.4766C164.023 60.5703 164.508 59.3281 164.508 57.75C164.508 56.1406 164.047 54.875 163.125 53.9531C162.219 53.0312 160.82 52.5703 158.93 52.5703H153.281V62.8125Z" fill="#0077C8"/>
<path d="M3.04688 126V91.875H13.5469C16.5469 91.875 19.2266 92.5547 21.5859 93.9141C23.9609 95.2578 25.8125 97.1797 27.1406 99.6797C28.4688 102.164 29.1328 104.992 29.1328 108.164V109.734C29.1328 112.906 28.4766 115.727 27.1641 118.195C25.8672 120.664 24.0312 122.578 21.6562 123.938C19.2812 125.297 16.6016 125.984 13.6172 126H3.04688ZM10.0781 97.5703V120.352H13.4766C16.2266 120.352 18.3281 119.453 19.7812 117.656C21.2344 115.859 21.9766 113.289 22.0078 109.945V108.141C22.0078 104.672 21.2891 102.047 19.8516 100.266C18.4141 98.4688 16.3125 97.5703 13.5469 97.5703H10.0781ZM48.5156 126C48.2031 125.391 47.9766 124.633 47.8359 123.727C46.1953 125.555 44.0625 126.469 41.4375 126.469C38.9531 126.469 36.8906 125.75 35.25 124.312C33.625 122.875 32.8125 121.062 32.8125 118.875C32.8125 116.188 33.8047 114.125 35.7891 112.688C37.7891 111.25 40.6719 110.523 44.4375 110.508H47.5547V109.055C47.5547 107.883 47.25 106.945 46.6406 106.242C46.0469 105.539 45.1016 105.188 43.8047 105.188C42.6641 105.188 41.7656 105.461 41.1094 106.008C40.4688 106.555 40.1484 107.305 40.1484 108.258H33.375C33.375 106.789 33.8281 105.43 34.7344 104.18C35.6406 102.93 36.9219 101.953 38.5781 101.25C40.2344 100.531 42.0938 100.172 44.1562 100.172C47.2812 100.172 49.7578 100.961 51.5859 102.539C53.4297 104.102 54.3516 106.305 54.3516 109.148V120.141C54.3672 122.547 54.7031 124.367 55.3594 125.602V126H48.5156ZM42.9141 121.289C43.9141 121.289 44.8359 121.07 45.6797 120.633C46.5234 120.18 47.1484 119.578 47.5547 118.828V114.469H45.0234C41.6328 114.469 39.8281 115.641 39.6094 117.984L39.5859 118.383C39.5859 119.227 39.8828 119.922 40.4766 120.469C41.0703 121.016 41.8828 121.289 42.9141 121.289ZM73.2891 118.992C73.2891 118.164 72.875 117.516 72.0469 117.047C71.2344 116.562 69.9219 116.133 68.1094 115.758C62.0781 114.492 59.0625 111.93 59.0625 108.07C59.0625 105.82 59.9922 103.945 61.8516 102.445C63.7266 100.93 66.1719 100.172 69.1875 100.172C72.4062 100.172 74.9766 100.93 76.8984 102.445C78.8359 103.961 79.8047 105.93 79.8047 108.352H73.0312C73.0312 107.383 72.7188 106.586 72.0938 105.961C71.4688 105.32 70.4922 105 69.1641 105C68.0234 105 67.1406 105.258 66.5156 105.773C65.8906 106.289 65.5781 106.945 65.5781 107.742C65.5781 108.492 65.9297 109.102 66.6328 109.57C67.3516 110.023 68.5547 110.422 70.2422 110.766C71.9297 111.094 73.3516 111.469 74.5078 111.891C78.0859 113.203 79.875 115.477 79.875 118.711C79.875 121.023 78.8828 122.898 76.8984 124.336C74.9141 125.758 72.3516 126.469 69.2109 126.469C67.0859 126.469 65.1953 126.094 63.5391 125.344C61.8984 124.578 60.6094 123.539 59.6719 122.227C58.7344 120.898 58.2656 119.469 58.2656 117.938H64.6875C64.75 119.141 65.1953 120.062 66.0234 120.703C66.8516 121.344 67.9609 121.664 69.3516 121.664C70.6484 121.664 71.625 121.422 72.2812 120.938C72.9531 120.438 73.2891 119.789 73.2891 118.992ZM90.8672 103.406C92.6641 101.25 94.9219 100.172 97.6406 100.172C103.141 100.172 105.93 103.367 106.008 109.758V126H99.2344V109.945C99.2344 108.492 98.9219 107.422 98.2969 106.734C97.6719 106.031 96.6328 105.68 95.1797 105.68C93.1953 105.68 91.7578 106.445 90.8672 107.977V126H84.0938V90H90.8672V103.406ZM133.969 113.555C133.969 117.617 133.102 120.789 131.367 123.07C129.633 125.336 127.211 126.469 124.102 126.469C121.352 126.469 119.156 125.414 117.516 123.305L117.211 126H111.117V90H117.891V102.914C119.453 101.086 121.508 100.172 124.055 100.172C127.148 100.172 129.57 101.312 131.32 103.594C133.086 105.859 133.969 109.055 133.969 113.18V113.555ZM127.195 113.062C127.195 110.5 126.789 108.633 125.977 107.461C125.164 106.273 123.953 105.68 122.344 105.68C120.188 105.68 118.703 106.562 117.891 108.328V118.336C118.719 120.117 120.219 121.008 122.391 121.008C124.578 121.008 126.016 119.93 126.703 117.773C127.031 116.742 127.195 115.172 127.195 113.062ZM137.109 113.086C137.109 110.57 137.594 108.328 138.562 106.359C139.531 104.391 140.922 102.867 142.734 101.789C144.562 100.711 146.68 100.172 149.086 100.172C152.508 100.172 155.297 101.219 157.453 103.312C159.625 105.406 160.836 108.25 161.086 111.844L161.133 113.578C161.133 117.469 160.047 120.594 157.875 122.953C155.703 125.297 152.789 126.469 149.133 126.469C145.477 126.469 142.555 125.297 140.367 122.953C138.195 120.609 137.109 117.422 137.109 113.391V113.086ZM143.883 113.578C143.883 115.984 144.336 117.828 145.242 119.109C146.148 120.375 147.445 121.008 149.133 121.008C150.773 121.008 152.055 120.383 152.977 119.133C153.898 117.867 154.359 115.852 154.359 113.086C154.359 110.727 153.898 108.898 152.977 107.602C152.055 106.305 150.758 105.656 149.086 105.656C147.43 105.656 146.148 106.305 145.242 107.602C144.336 108.883 143.883 110.875 143.883 113.578ZM180 126C179.688 125.391 179.461 124.633 179.32 123.727C177.68 125.555 175.547 126.469 172.922 126.469C170.438 126.469 168.375 125.75 166.734 124.312C165.109 122.875 164.297 121.062 164.297 118.875C164.297 116.188 165.289 114.125 167.273 112.688C169.273 111.25 172.156 110.523 175.922 110.508H179.039V109.055C179.039 107.883 178.734 106.945 178.125 106.242C177.531 105.539 176.586 105.188 175.289 105.188C174.148 105.188 173.25 105.461 172.594 106.008C171.953 106.555 171.633 107.305 171.633 108.258H164.859C164.859 106.789 165.312 105.43 166.219 104.18C167.125 102.93 168.406 101.953 170.062 101.25C171.719 100.531 173.578 100.172 175.641 100.172C178.766 100.172 181.242 100.961 183.07 102.539C184.914 104.102 185.836 106.305 185.836 109.148V120.141C185.852 122.547 186.188 124.367 186.844 125.602V126H180ZM174.398 121.289C175.398 121.289 176.32 121.07 177.164 120.633C178.008 120.18 178.633 119.578 179.039 118.828V114.469H176.508C173.117 114.469 171.312 115.641 171.094 117.984L171.07 118.383C171.07 119.227 171.367 119.922 171.961 120.469C172.555 121.016 173.367 121.289 174.398 121.289ZM205.289 106.992C204.367 106.867 203.555 106.805 202.852 106.805C200.289 106.805 198.609 107.672 197.812 109.406V126H191.039V100.641H197.438L197.625 103.664C198.984 101.336 200.867 100.172 203.273 100.172C204.023 100.172 204.727 100.273 205.383 100.477L205.289 106.992ZM207.047 113.133C207.047 109.18 207.93 106.031 209.695 103.688C211.477 101.344 213.906 100.172 216.984 100.172C219.453 100.172 221.492 101.094 223.102 102.938V90H229.898V126H223.781L223.453 123.305C221.766 125.414 219.594 126.469 216.938 126.469C213.953 126.469 211.555 125.297 209.742 122.953C207.945 120.594 207.047 117.32 207.047 113.133ZM213.82 113.625C213.82 116 214.234 117.82 215.062 119.086C215.891 120.352 217.094 120.984 218.672 120.984C220.766 120.984 222.242 120.102 223.102 118.336V108.328C222.258 106.562 220.797 105.68 218.719 105.68C215.453 105.68 213.82 108.328 213.82 113.625Z" fill="#71B2C9"/>
<path d="M28.7344 7.57031H18.2812V36H11.25V7.57031H0.9375V1.875H28.7344V7.57031ZM38.9297 13.4062C40.7266 11.25 42.9844 10.1719 45.7031 10.1719C51.2031 10.1719 53.9922 13.3672 54.0703 19.7578V36H47.2969V19.9453C47.2969 18.4922 46.9844 17.4219 46.3594 16.7344C45.7344 16.0312 44.6953 15.6797 43.2422 15.6797C41.2578 15.6797 39.8203 16.4453 38.9297 17.9766V36H32.1562V0H38.9297V13.4062ZM70.8516 36.4688C67.1328 36.4688 64.1016 35.3281 61.7578 33.0469C59.4297 30.7656 58.2656 27.7266 58.2656 23.9297V23.2734C58.2656 20.7266 58.7578 18.4531 59.7422 16.4531C60.7266 14.4375 62.1172 12.8906 63.9141 11.8125C65.7266 10.7188 67.7891 10.1719 70.1016 10.1719C73.5703 10.1719 76.2969 11.2656 78.2812 13.4531C80.2812 15.6406 81.2812 18.7422 81.2812 22.7578V25.5234H65.1328C65.3516 27.1797 66.0078 28.5078 67.1016 29.5078C68.2109 30.5078 69.6094 31.0078 71.2969 31.0078C73.9062 31.0078 75.9453 30.0625 77.4141 28.1719L80.7422 31.8984C79.7266 33.3359 78.3516 34.4609 76.6172 35.2734C74.8828 36.0703 72.9609 36.4688 70.8516 36.4688ZM70.0781 15.6562C68.7344 15.6562 67.6406 16.1094 66.7969 17.0156C65.9688 17.9219 65.4375 19.2188 65.2031 20.9062H74.625V20.3672C74.5938 18.8672 74.1875 17.7109 73.4062 16.8984C72.625 16.0703 71.5156 15.6562 70.0781 15.6562Z" fill="#1D4F91"/>
</svg>
